Coordinates
version=1
nRows=14
nColumns=36
inDegrees=yes

Units are S.I. units (second, meters, Newtons, ...)
If the header above contains a line with 'inDegrees', this indicates whether rotational values are in degrees (yes) or radians (no).

endheader
time	pelvis_tilt	pelvis_list	pelvis_rotation	pelvis_tx	pelvis_ty	pelvis_tz	hip_flexion_r	hip_adduction_r	hip_rotation_r	knee_angle_r	knee_angle_r_beta	ankle_angle_r	subtalar_angle_r	mtp_angle_r	hip_flexion_l	hip_adduction_l	hip_rotation_l	knee_angle_l	knee_angle_l_beta	ankle_angle_l	subtalar_angle_l	mtp_angle_l	lumbar_extension	lumbar_bending	lumbar_rotation	arm_flex_r	arm_add_r	arm_rot_r	elbow_flex_r	pro_sup_r	arm_flex_l	arm_add_l	arm_rot_l	elbow_flex_l	pro_sup_l
      2.02916670	     -7.51712371	      1.02723657	      0.92715859	      0.14265803	      0.40374707	     -0.07724996	    119.27376043	    -26.92512176	     25.05445412	    139.63913715	      2.43716271	     38.75035456	     19.95189060	     -7.49999987	    119.93213371	    -23.27554780	     14.43928196	    139.64954278	      2.43734432	     22.82318709	     10.86235146	     -7.49999987	    -58.61408185	      1.13318362	      1.20953468	    107.73600909	    -28.00739185	     70.44937722	     57.81939311	     66.41312374	    108.03774856	    -15.45895939	     74.74599210	     53.20434681	     61.41304810
      2.03333330	     -7.58446653	      1.06069911	      0.90423516	      0.14334040	      0.40263758	     -0.08065414	    119.14640097	    -26.68885376	     25.17603080	    139.61269608	      2.43670122	     38.96345576	     19.88502709	     -7.49999987	    119.93197945	    -23.30111651	     14.32547312	    139.63469231	      2.43708513	     22.70366319	     10.69705989	     -7.49999987	    -58.62135604	      1.08332789	      1.17663219	    107.85704683	    -27.37132321	     70.59180933	     58.12130015	     66.24593167	    107.77328006	    -14.95435224	     74.44337431	     53.54719473	     61.43263030
      2.03750000	     -7.94516980	      1.13786572	      0.97349118	      0.14532063	      0.40630279	     -0.08044948	    119.11686121	    -26.49444794	     25.27728133	    139.45039431	      2.43386852	     39.04024919	     19.75735425	     -7.49999987	    119.93058543	    -23.29332983	     13.89375159	    139.50502136	      2.43482195	     22.62903922	     10.39507109	     -7.49999987	    -58.26939154	      1.11405138	      0.94449995	    107.11671759	    -26.38525790	     68.69695288	     58.02394173	     71.54279067	    106.73177077	    -14.44702659	     72.32322294	     53.44366543	     65.18194089
      2.04166670	     -8.32241900	      1.09070401	      1.00986521	      0.14661962	      0.40849306	     -0.07741563	    118.89207408	    -26.08148678	     24.92737953	    139.23487976	      2.43010709	     38.95510341	     19.02322671	     -7.49999987	    119.92934758	    -23.32516428	     13.81258639	    139.31829091	      2.43156288	     22.26810134	     10.11601206	     -7.49999987	    -57.92670711	      1.11878614	      0.99230617	    106.89571734	    -25.93115862	     68.86653529	     58.35000192	     71.05005828	    106.27050518	    -13.97564197	     72.24481441	     53.81701774	     64.95684493
      2.04583330	     -8.82447898	      1.05259113	      1.16910799	      0.14905355	      0.41021226	     -0.07650065	    118.73529544	    -25.82783602	     24.50805490	    139.00492998	      2.42609370	     38.92803231	     18.29059793	     -7.49999987	    119.92730904	    -23.28158536	     13.67691373	    139.02855842	      2.42650610	     22.41453880	     10.25819373	     -7.49999987	    -57.47987375	      1.13054404	      0.76629832	    106.09670736	    -25.21716335	     67.95185860	     58.71729762	     70.98214620	    105.43064755	    -13.44667757	     71.12313365	     53.91077303	     65.04250197
      2.05000000	     -9.25103114	      0.97072096	      1.17676471	      0.15107412	      0.41154409	     -0.07467708	    118.33556845	    -25.38628685	     23.74017846	    138.87610399	      2.42384527	     39.09803360	     17.23057823	     -7.49999987	    119.92579055	    -23.51664133	     13.88352996	    138.79037688	      2.42234905	     22.31640886	     10.28869068	     -7.49999987	    -57.09261671	      1.05797735	      0.80832443	    105.58542004	    -24.78208349	     68.11702285	     59.25921868	     70.75317044	    104.78080213	    -13.05989460	     71.07736926	     54.46989578	     64.98071261
      2.05416670	     -9.96925409	      0.88080472	      1.31267952	      0.15234832	      0.41740109	     -0.07960300	    118.08465262	    -25.35463968	     23.10299702	    138.42340480	      2.41594418	     39.21359195	     16.44316624	     -7.49999987	    119.92267304	    -23.35557940	     13.36898882	    138.26627490	      2.41320174	     22.58599002	     10.10620920	     -7.49999987	    -56.48134431	      1.29915615	      0.66378446	    104.63095336	    -24.05198570	     66.62421572	     59.78066089	     74.34499596	    103.33125906	    -12.79373747	     68.84031551	     55.21019729	     68.62101731
      2.05833330	    -10.29598930	      0.66296423	      1.35316815	      0.15007326	      0.41647805	     -0.07757776	    117.70822501	    -25.27017422	     22.42982594	    138.10520871	      2.41039061	     39.38115231	     15.93818129	     -7.49999987	    119.91978038	    -23.10788335	     13.31679192	    137.92412843	      2.40723016	     22.83813450	      9.97406249	     -7.49999987	    -56.22827373	      1.40465680	      0.82020107	    104.22715002	    -23.70931662	     66.36594471	     60.31512405	     74.77990427	    102.57146881	    -12.15757666	     68.08934488	     55.48241763	     69.48190934
      2.06250000	    -10.83731976	      0.47785409	      1.33747995	      0.15417759	      0.42105325	     -0.07959675	    117.29864690	    -25.09301784	     21.75938249	    137.54228632	      2.40056576	     39.51522771	     15.58904469	     -7.49999987	    119.91709912	    -23.02805881	     13.07408283	    137.50944524	      2.39999257	     22.98463727	      9.79532402	     -7.49999987	    -55.80416783	      1.54357498	      0.96024948	    103.87470855	    -23.33359070	     66.62706845	     60.89571723	     73.41707133	    101.74035034	    -11.71114550	     67.92864787	     56.24805708	     68.58518280
      2.06666670	    -11.86991673	      0.31808587	      1.27126321	      0.15873669	      0.42936095	     -0.07911827	    117.06585281	    -24.80969034	     20.85275722	    136.78353625	      2.38732307	     39.38047676	     14.54832893	     -7.49999987	    119.91173488	    -23.13435354	     12.57388680	    136.66569289	      2.38526632	     23.11539120	      9.52032970	     -7.49999987	    -54.79493931	      1.64577380	      1.19205581	    102.71787716	    -22.92000616	     65.60514533	     61.42993181	     76.57952304	     99.85249000	    -10.96334887	     65.76464751	     56.69864153	     71.62905445
      2.07083330	    -12.92104865	      0.04553335	      1.20379129	      0.16246327	      0.43442877	     -0.08161363	    116.78667217	    -24.60369287	     19.88175492	    135.88950626	      2.37171930	     38.94923650	     13.47769235	     -7.49999987	    119.90418653	    -23.18671772	     12.08868955	    135.95723961	      2.37290147	     23.38978839	      9.25239742	     -7.49999987	    -53.78049104	      1.89171846	      1.48937357	    101.95045541	    -22.54956909	     65.81687897	     61.78921614	     75.68545957	     98.45009180	    -10.39156592	     65.40976726	     57.25597284	     70.99371635
      2.07500000	    -14.21000508	     -0.21420039	      1.17844936	      0.16530836	      0.44019661	     -0.08266716	    116.65757129	    -24.53960894	     18.86873519	    134.82858768	      2.35320278	     38.57608100	     12.66710153	     -7.49999987	    119.89503158	    -23.20774164	     11.44553040	    135.08563029	      2.35768902	     23.64478562	      8.70872846	     -7.49999987	    -52.50486168	      2.24350400	      1.72311261	    100.59058356	    -21.99833162	     65.17126030	     62.04090697	     75.22147925	     96.15221052	     -9.69060367	     63.08614943	     57.81768125	     70.79366492
      2.07916670	    -15.85153991	     -0.42997387	      1.01455798	      0.16747645	      0.45003116	     -0.08140616	    116.38836431	    -24.14496749	     17.42132450	    133.38182716	      2.32795205	     38.24776736	     11.57255015	     -7.49999987	    119.87919393	    -23.45163373	     10.76232493	    133.77336301	      2.33478564	     23.97011367	      8.32191900	     -7.49999987	    -51.19313938	      2.43864667	      1.98516998	     99.54499548	    -21.60766482	     65.27036763	     62.61548977	     72.42678034	     94.45147866	     -9.37893849	     62.34804884	     59.10274566	     68.79196505
      2.08333330	    -17.12117359	     -0.59993797	      0.90875536	      0.16635430	      0.45244804	     -0.07788574	    116.14049654	    -23.73153834	     16.07183810	    132.20132388	      2.30734838	     37.88903289	     10.02148738	     -7.49999987	    119.86107720	    -23.57103667	     10.34177253	    132.60796688	      2.31444564	     24.07145308	      7.44510630	     -7.49999987	    -50.13800615	      2.46712852	      2.34118799	     98.42832596	    -21.23507182	     64.32992355	     62.70647041	     80.38597102	     92.59628704	     -8.39884894	     60.08337581	     59.20529404	     76.05014282
